<?xml version="1.0" encoding="UTF-8" standalone="no"?>
<!DOCTYPE svg PUBLIC "-//W3C//DTD SVG 1.1//EN" "http://www.w3.org/Graphics/SVG/1.1/DTD/svg11.dtd">
<svg width="100%" height="100%" viewBox="0 0 451 124" version="1.1" xmlns="http://www.w3.org/2000/svg" xmlns:xlink="http://www.w3.org/1999/xlink" xml:space="preserve" xmlns:serif="http://www.serif.com/" style="fill-rule:evenodd;clip-rule:evenodd;stroke-linejoin:round;stroke-miterlimit:2;">
    <g transform="matrix(1,0,0,1,-24.5436,-167.289)">
        <g transform="matrix(1,0,0,1,-0.607494,-22.0807)">
            <g transform="matrix(1,0,0,1,19.5626,309.745)">
                <g>
                    <path d="M117.406,-117.927L65.167,-117.927L65.167,-116.88L74.25,-107.099L74.25,-58.703L48.745,-58.703L48.745,-107.099L57.656,-116.88L57.656,-117.927L5.589,-117.927L5.589,-116.88L14.5,-107.099L14.5,-10.833L5.589,-1.047L5.589,0L57.656,0L57.656,-1.047L48.745,-10.833L48.745,-55.557L74.25,-55.557L74.25,-10.833L65.167,-1.047L65.167,0L117.406,0L117.406,-1.047L108.318,-10.833L108.318,-107.099L117.406,-116.88L117.406,-117.927Z" style="fill:rgb(35,31,32);fill-rule:nonzero;"/>
                </g>
            </g>
            <g transform="matrix(1,0,0,1,137.137,309.745)">
                <g>
                    <path d="M107.797,-117.927L64.292,-117.927L64.292,-116.88L73.729,-107.797L73.552,-23.76C70.057,-19.745 65.865,-16.948 60.099,-16.948C50.318,-16.948 46.823,-25.682 46.823,-39.661L46.823,-117.927L3.495,-117.927L3.495,-116.88L12.755,-107.797L12.578,-33.547C12.578,-8.385 25.156,2.62 44.724,2.62C49.443,2.62 56.781,-3.495 73.552,-19.391L73.552,0L116.88,0L116.88,-1.047L107.62,-10.135L107.797,-117.927Z" style="fill:rgb(35,31,32);fill-rule:nonzero;"/>
                </g>
            </g>
            <g transform="matrix(1,0,0,1,252.965,309.745)">
                <g>
                    <path d="M48.568,-62.896L48.568,-61.849L74.427,-54.859L74.427,-21.661C73.901,-21.49 73.38,-21.49 72.677,-21.49C50.49,-21.49 30.75,-60.448 30.75,-91.198C30.75,-104.828 36.516,-111.464 44.026,-111.464C58.177,-111.464 72.854,-89.625 76,-71.281L76.875,-71.109L106.396,-98.187C100.281,-109.719 84.734,-120.375 63.073,-120.375C54.859,-120.375 4.37,-112.161 4.37,-58.526C4.37,-25.333 27.078,1.745 59.401,2.099C63.073,2.099 70.406,-9.432 79.146,-21.661L80.193,-21.661L105,2.797L106.224,2.797L106.922,-62.021L106.047,-62.896L48.568,-62.896Z" style="fill:rgb(35,31,32);fill-rule:nonzero;"/>
                </g>
            </g>
            <g transform="matrix(1,0,0,1,362.678,309.745)">
                <g>
                    <path d="M59.229,2.62C66.74,2.62 113.385,-7.859 113.385,-59.052C113.385,-93.12 89.974,-120.375 58.875,-120.375C51.188,-120.375 4.542,-109.891 4.542,-58.703C4.542,-24.635 27.604,2.62 59.229,2.62ZM79.667,-7.687C68.135,-4.193 52.063,-23.062 39.661,-55.734C27.255,-88.401 29,-107.099 38.089,-110.068C48.917,-113.214 63.422,-97.661 75.651,-67.089C89.276,-33.193 89.104,-10.833 79.667,-7.687Z" style="fill:rgb(35,31,32);fill-rule:nonzero;"/>
                </g>
            </g>
            <rect x="54.464" y="230.031" width="391.839" height="38.953" style="fill:rgb(251,250,249);fill-rule:nonzero;"/>
            <g transform="matrix(1,0,0,1,122.516,253.777)">
                <g>
                    <path d="M4.141,0L5.917,0L5.917,-7.667L9.979,-7.667L9.979,-9.062L0.078,-9.062L0.078,-7.667L4.141,-7.667L4.141,0Z" style="fill:rgb(35,31,32);fill-rule:nonzero;"/>
                </g>
            </g>
            <g transform="matrix(1,0,0,1,142.787,253.777)">
                <g>
                    <path d="M0.052,0L1.906,0L2.938,-1.979L8.615,-1.979L9.651,0L11.516,0L6.839,-9.062L4.766,-9.062L0.052,0ZM3.464,-3.219L5.776,-7.771L5.802,-7.771L8.104,-3.219L3.464,-3.219Z" style="fill:rgb(35,31,32);fill-rule:nonzero;"/>
                </g>
            </g>
            <g transform="matrix(1,0,0,1,164.565,253.777)">
                <g>
                    <rect x="0.641" y="-9.062" width="1.76" height="9.063" style="fill:rgb(35,31,32);fill-rule:nonzero;"/>
                </g>
            </g>
            <g transform="matrix(1,0,0,1,177.827,253.777)">
                <g>
                    <path d="M0.641,0L8.219,0L8.219,-1.406L2.417,-1.406L2.417,-9.062L0.641,-9.062L0.641,0Z" style="fill:rgb(35,31,32);fill-rule:nonzero;"/>
                </g>
            </g>
            <g transform="matrix(1,0,0,1,196.363,253.777)">
                <g>
                    <path d="M3.99,0L6.146,0L9.344,-7.542L9.354,-7.542L12.536,0L14.698,0L18.682,-9.062L16.844,-9.062L13.599,-1.51L13.573,-1.51L10.469,-9.062L8.219,-9.062L5.125,-1.51L5.115,-1.51L1.839,-9.062L-0.01,-9.062L3.99,0Z" style="fill:rgb(35,31,32);fill-rule:nonzero;"/>
                </g>
            </g>
            <g transform="matrix(1,0,0,1,225.251,253.777)">
                <g>
                    <rect x="0.641" y="-9.062" width="1.76" height="9.063" style="fill:rgb(35,31,32);fill-rule:nonzero;"/>
                </g>
            </g>
            <g transform="matrix(1,0,0,1,238.513,253.777)">
                <g>
                    <path d="M0.641,0L2.349,0L2.349,-7.333L2.365,-7.333L8.854,0L11.078,0L11.078,-9.062L9.354,-9.062L9.354,-1.74L9.344,-1.74L2.865,-9.062L0.641,-9.062L0.641,0Z" style="fill:rgb(35,31,32);fill-rule:nonzero;"/>
                </g>
            </g>
            <g transform="matrix(1,0,0,1,260.444,253.777)">
                <g>
                    <path d="M0.641,0L6.328,0C9.75,0 11.656,-1.625 11.656,-4.526C11.656,-7.437 9.75,-9.062 6.328,-9.062L0.641,-9.062L0.641,0ZM2.391,-1.344L2.391,-7.693L6.172,-7.693C8.573,-7.693 9.917,-6.568 9.917,-4.526C9.917,-2.479 8.573,-1.344 6.172,-1.344L2.391,-1.344Z" style="fill:rgb(35,31,32);fill-rule:nonzero;"/>
                </g>
            </g>
            <g transform="matrix(1,0,0,1,296.71,253.777)">
                <g>
                    <path d="M0.641,0L6.328,0C9.75,0 11.656,-1.625 11.656,-4.526C11.656,-7.437 9.75,-9.062 6.328,-9.062L0.641,-9.062L0.641,0ZM2.391,-1.344L2.391,-7.693L6.172,-7.693C8.573,-7.693 9.917,-6.568 9.917,-4.526C9.917,-2.479 8.573,-1.344 6.172,-1.344L2.391,-1.344Z" style="fill:rgb(35,31,32);fill-rule:nonzero;"/>
                </g>
            </g>
            <g transform="matrix(1,0,0,1,319.062,253.777)">
                <g>
                    <path d="M0.641,0L9.776,0L9.776,-1.292L2.365,-1.292L2.365,-4.062L9.135,-4.062L9.135,-5.25L2.365,-5.25L2.365,-7.755L9.651,-7.755L9.651,-9.062L0.641,-9.062L0.641,0Z" style="fill:rgb(35,31,32);fill-rule:nonzero;"/>
                </g>
            </g>
            <g transform="matrix(1,0,0,1,339.308,253.777)">
                <g>
                    <path d="M0.641,0L2.349,0L2.349,-7.208L2.375,-7.208L6.313,0L8.089,0L12,-7.208L12.026,-7.208L12.026,0L13.74,0L13.74,-9.062L11.245,-9.062L7.193,-1.599L7.182,-1.599L3.104,-9.062L0.641,-9.062L0.641,0Z" style="fill:rgb(35,31,32);fill-rule:nonzero;"/>
                </g>
            </g>
            <g transform="matrix(1,0,0,1,363.894,253.777)">
                <g>
                    <path d="M6.786,0.318C10.542,0.318 13.099,-1.651 13.099,-4.526C13.099,-7.385 10.542,-9.38 6.786,-9.38C3.042,-9.38 0.484,-7.385 0.484,-4.526C0.484,-1.651 3.042,0.318 6.786,0.318ZM6.786,-1.062C4.115,-1.062 2.26,-2.479 2.26,-4.526C2.26,-6.568 4.115,-7.99 6.786,-7.99C9.458,-7.99 11.323,-6.568 11.323,-4.526C11.323,-2.479 9.458,-1.062 6.786,-1.062Z" style="fill:rgb(35,31,32);fill-rule:nonzero;"/>
                </g>
            </g>
        </g>
    </g>
</svg>
