<?xml version="1.0" encoding="UTF-8" standalone="no"?>
<!DOCTYPE svg PUBLIC "-//W3C//DTD SVG 1.1//EN" "http://www.w3.org/Graphics/SVG/1.1/DTD/svg11.dtd">
<svg width="100%" height="100%" viewBox="0 0 322 95" version="1.1" xmlns="http://www.w3.org/2000/svg" xmlns:xlink="http://www.w3.org/1999/xlink" xml:space="preserve" xmlns:serif="http://www.serif.com/" style="fill-rule:evenodd;clip-rule:evenodd;">
    <g transform="matrix(1,0,0,1,-77.064,-228.965)">
        <g transform="matrix(1,0,0,1,-24.5942,16.1502)">
            <g transform="matrix(0.751518,0,0,0.75,126.422,276.37)">
                <path d="M-0.001,7.999L154.36,7.999" style="fill:none;fill-rule:nonzero;stroke:black;stroke-width:16px;"/>
            </g>
            <g transform="matrix(1,0,0,1,121.422,260.752)">
                <g>
                    <path d="M49.396,-46.979L49.396,0L36.104,0L36.104,-18.333L17.979,-18.333L17.979,0L4.708,0L4.708,-46.979L17.979,-46.979L17.979,-29.333L36.104,-29.333L36.104,-46.979L49.396,-46.979Z" style="fill-rule:nonzero;"/>
                </g>
            </g>
            <g transform="matrix(1,0,0,1,181.362,260.752)">
                <g>
                    <path d="M26.375,0.938C19.401,0.938 13.979,-0.964 10.104,-4.771C6.229,-8.573 4.292,-13.964 4.292,-20.937L4.292,-46.979L17.583,-46.979L17.583,-21.354C17.583,-13.823 20.563,-10.062 26.521,-10.062C32.422,-10.062 35.375,-13.823 35.375,-21.354L35.375,-46.979L48.458,-46.979L48.458,-20.937C48.458,-13.964 46.521,-8.573 42.646,-4.771C38.781,-0.964 33.359,0.938 26.375,0.938Z" style="fill-rule:nonzero;"/>
                </g>
            </g>
            <g transform="matrix(1,0,0,1,239.96,260.752)">
                <g>
                    <path d="M36.188,-24.5L47.938,-24.5L47.938,-5.042C45.24,-3.109 42.151,-1.63 38.667,-0.604C35.177,0.422 31.688,0.938 28.188,0.938C23.271,0.938 18.839,-0.104 14.896,-2.187C10.964,-4.271 7.88,-7.167 5.646,-10.875C3.406,-14.583 2.292,-18.792 2.292,-23.5C2.292,-28.193 3.406,-32.396 5.646,-36.104C7.88,-39.823 10.984,-42.729 14.958,-44.812C18.943,-46.896 23.443,-47.937 28.458,-47.937C32.844,-47.937 36.781,-47.193 40.271,-45.708C43.771,-44.234 46.677,-42.109 49,-39.333L40.542,-31.687C37.359,-35.172 33.552,-36.917 29.125,-36.917C25.094,-36.917 21.854,-35.693 19.396,-33.25C16.938,-30.818 15.708,-27.568 15.708,-23.5C15.708,-20.901 16.26,-18.583 17.375,-16.542C18.5,-14.51 20.068,-12.922 22.083,-11.771C24.094,-10.63 26.401,-10.062 29,-10.062C31.552,-10.062 33.948,-10.573 36.188,-11.604L36.188,-24.5Z" style="fill-rule:nonzero;"/>
                </g>
            </g>
            <g transform="matrix(1,0,0,1,297.483,260.752)">
                <g>
                    <path d="M28.396,0.938C23.422,0.938 18.958,-0.109 15,-2.208C11.042,-4.318 7.927,-7.229 5.667,-10.937C3.417,-14.656 2.292,-18.844 2.292,-23.5C2.292,-28.151 3.417,-32.333 5.667,-36.042C7.927,-39.76 11.042,-42.672 15,-44.771C18.958,-46.88 23.422,-47.937 28.396,-47.937C33.365,-47.937 37.833,-46.88 41.792,-44.771C45.75,-42.672 48.854,-39.76 51.104,-36.042C53.365,-32.333 54.5,-28.151 54.5,-23.5C54.5,-18.844 53.365,-14.656 51.104,-10.937C48.854,-7.229 45.75,-4.318 41.792,-2.208C37.833,-0.109 33.365,0.938 28.396,0.938ZM28.396,-10.062C30.771,-10.062 32.917,-10.615 34.833,-11.729C36.76,-12.854 38.281,-14.437 39.396,-16.479C40.521,-18.521 41.083,-20.859 41.083,-23.5C41.083,-26.135 40.521,-28.469 39.396,-30.5C38.281,-32.542 36.76,-34.115 34.833,-35.229C32.917,-36.354 30.771,-36.917 28.396,-36.917C26.021,-36.917 23.865,-36.354 21.938,-35.229C20.021,-34.115 18.5,-32.542 17.375,-30.5C16.26,-28.469 15.708,-26.135 15.708,-23.5C15.708,-20.859 16.26,-18.521 17.375,-16.479C18.5,-14.437 20.021,-12.854 21.938,-11.729C23.865,-10.615 26.021,-10.062 28.396,-10.062Z" style="fill-rule:nonzero;"/>
                </g>
            </g>
            <g transform="matrix(1,0,0,1,248,287.104)">
                <g>
                    <path d="M3.625,-9.104L0.063,-9.104L0.063,-10.396L8.667,-10.396L8.667,-9.104L5.104,-9.104L5.104,0L3.625,0L3.625,-9.104Z" style="fill-rule:nonzero;"/>
                </g>
            </g>
            <g transform="matrix(1,0,0,1,260.403,287.104)">
                <g>
                    <path d="M8.188,-2.604L2.667,-2.604L1.521,0L-0.021,0L4.688,-10.396L6.167,-10.396L10.896,0L9.333,0L8.188,-2.604ZM7.667,-3.792L5.417,-8.875L3.188,-3.792L7.667,-3.792Z" style="fill-rule:nonzero;"/>
                </g>
            </g>
            <g transform="matrix(1,0,0,1,274.959,287.104)">
                <g>
                    <rect x="1.563" y="-10.396" width="1.479" height="10.396" style="fill-rule:nonzero;"/>
                </g>
            </g>
            <g transform="matrix(1,0,0,1,283.249,287.104)">
                <g>
                    <path d="M1.563,-10.396L3.042,-10.396L3.042,-1.292L8.667,-1.292L8.667,0L1.563,0L1.563,-10.396Z" style="fill-rule:nonzero;"/>
                </g>
            </g>
            <g transform="matrix(1,0,0,1,295.756,287.104)">
                <g>
                    <path d="M16.25,-10.396L12.771,0L11.208,0L8.375,-8.312L5.542,0L3.958,0L0.479,-10.396L2,-10.396L4.813,-1.937L7.729,-10.396L9.104,-10.396L11.979,-1.896L14.833,-10.396L16.25,-10.396Z" style="fill-rule:nonzero;"/>
                </g>
            </g>
            <g transform="matrix(1,0,0,1,316.164,287.104)">
                <g>
                    <rect x="1.563" y="-10.396" width="1.479" height="10.396" style="fill-rule:nonzero;"/>
                </g>
            </g>
            <g transform="matrix(1,0,0,1,324.453,287.104)">
                <g>
                    <path d="M10.5,-10.396L10.5,0L9.292,0L3.042,-7.75L3.042,0L1.563,0L1.563,-10.396L2.771,-10.396L9.021,-2.646L9.021,-10.396L10.5,-10.396Z" style="fill-rule:nonzero;"/>
                </g>
            </g>
            <g transform="matrix(1,0,0,1,340.197,287.104)">
                <g>
                    <path d="M1.563,-10.396L5.938,-10.396C7.031,-10.396 8.005,-10.172 8.854,-9.729C9.714,-9.297 10.38,-8.687 10.854,-7.896C11.323,-7.115 11.563,-6.219 11.563,-5.208C11.563,-4.177 11.323,-3.271 10.854,-2.479C10.38,-1.698 9.714,-1.089 8.854,-0.646C8.005,-0.214 7.031,0 5.938,0L1.563,0L1.563,-10.396ZM5.854,-1.292C6.698,-1.292 7.443,-1.448 8.083,-1.771C8.719,-2.104 9.208,-2.562 9.542,-3.146C9.885,-3.74 10.063,-4.427 10.063,-5.208C10.063,-5.969 9.885,-6.646 9.542,-7.229C9.208,-7.823 8.719,-8.281 8.083,-8.604C7.443,-8.937 6.698,-9.104 5.854,-9.104L3.042,-9.104L3.042,-1.292L5.854,-1.292Z" style="fill-rule:nonzero;"/>
                </g>
            </g>
            <g transform="matrix(1,0,0,1,363.83,287.104)">
                <g>
                    <path d="M1.563,-10.396L5.938,-10.396C7.031,-10.396 8.005,-10.172 8.854,-9.729C9.714,-9.297 10.38,-8.687 10.854,-7.896C11.323,-7.115 11.563,-6.219 11.563,-5.208C11.563,-4.177 11.323,-3.271 10.854,-2.479C10.38,-1.698 9.714,-1.089 8.854,-0.646C8.005,-0.214 7.031,0 5.938,0L1.563,0L1.563,-10.396ZM5.854,-1.292C6.698,-1.292 7.443,-1.448 8.083,-1.771C8.719,-2.104 9.208,-2.562 9.542,-3.146C9.885,-3.74 10.063,-4.427 10.063,-5.208C10.063,-5.969 9.885,-6.646 9.542,-7.229C9.208,-7.823 8.719,-8.281 8.083,-8.604C7.443,-8.937 6.698,-9.104 5.854,-9.104L3.042,-9.104L3.042,-1.292L5.854,-1.292Z" style="fill-rule:nonzero;"/>
                </g>
            </g>
            <g transform="matrix(1,0,0,1,379.783,287.104)">
                <g>
                    <path d="M9.104,-1.292L9.104,0L1.563,0L1.563,-10.396L8.896,-10.396L8.896,-9.104L3.042,-9.104L3.042,-5.917L8.25,-5.917L8.25,-4.646L3.042,-4.646L3.042,-1.292L9.104,-1.292Z" style="fill-rule:nonzero;"/>
                </g>
            </g>
            <g transform="matrix(1,0,0,1,393.418,287.104)">
                <g>
                    <path d="M11.208,0L11.188,-7.583L7.417,-1.271L6.75,-1.271L2.979,-7.521L2.979,0L1.563,0L1.563,-10.396L2.771,-10.396L7.125,-3.083L11.396,-10.396L12.604,-10.396L12.625,0L11.208,0Z" style="fill-rule:nonzero;"/>
                </g>
            </g>
            <g transform="matrix(1,0,0,1,411.287,287.104)">
                <g>
                    <path d="M6.25,0.125C5.208,0.125 4.26,-0.104 3.417,-0.562C2.568,-1.031 1.901,-1.672 1.417,-2.479C0.943,-3.297 0.708,-4.208 0.708,-5.208C0.708,-6.208 0.943,-7.109 1.417,-7.917C1.901,-8.719 2.568,-9.354 3.417,-9.812C4.26,-10.281 5.208,-10.521 6.25,-10.521C7.292,-10.521 8.229,-10.281 9.063,-9.812C9.906,-9.354 10.568,-8.719 11.042,-7.917C11.526,-7.109 11.771,-6.208 11.771,-5.208C11.771,-4.193 11.526,-3.281 11.042,-2.479C10.568,-1.672 9.906,-1.031 9.063,-0.562C8.229,-0.104 7.292,0.125 6.25,0.125ZM6.25,-1.208C7.01,-1.208 7.698,-1.38 8.313,-1.729C8.922,-2.073 9.401,-2.547 9.75,-3.146C10.094,-3.755 10.271,-4.443 10.271,-5.208C10.271,-5.958 10.094,-6.63 9.75,-7.229C9.401,-7.839 8.922,-8.318 8.313,-8.667C7.698,-9.01 7.01,-9.187 6.25,-9.187C5.484,-9.187 4.792,-9.01 4.167,-8.667C3.552,-8.318 3.073,-7.839 2.729,-7.229C2.38,-6.63 2.208,-5.958 2.208,-5.208C2.208,-4.443 2.38,-3.755 2.729,-3.146C3.073,-2.547 3.552,-2.073 4.167,-1.729C4.792,-1.38 5.484,-1.208 6.25,-1.208Z" style="fill-rule:nonzero;"/>
                </g>
            </g>
        </g>
    </g>
</svg>
